<svg width="108" height="108" viewBox="0 0 108 108" fill="none" xmlns="http://www.w3.org/2000/svg">
<g id="book-alt-bg-light" clip-path="url(#clip0_582_73)">
<path id="Vector" d="M99.9 9.73335C97.3702 7.61802 94.4058 6.0856 91.2171 5.24489C88.0285 4.40417 84.6938 4.27579 81.45 4.86884L64.251 7.99184C60.2802 8.72104 56.6698 10.764 54 13.7923C51.3232 10.7587 47.7025 8.71535 43.722 7.99184L26.55 4.86884C23.3062 4.27527 19.9716 4.40197 16.7822 5.23999C13.5928 6.078 10.6266 7.60684 8.09352 9.71829C5.56047 11.8297 3.52251 14.4722 2.12389 17.4585C0.725271 20.4449 0.000189138 23.7022 -3.05176e-05 26.9998L-3.05176e-05 75.5684C0.000228034 80.837 1.84936 85.9384 5.22507 89.9835C8.60078 94.0286 13.289 96.7608 18.4725 97.7038L46.7595 102.847C51.5473 103.717 56.4527 103.717 61.2405 102.847L89.55 97.7038C94.7294 96.7561 99.4123 94.0219 102.784 89.9772C106.155 85.9326 108.001 80.8337 108 75.5684V26.9998C108.002 23.7033 107.277 20.4469 105.877 17.4625C104.477 14.4781 102.436 11.8391 99.9 9.73335ZM49.5 94.1758C49.122 94.1218 48.744 94.0588 48.366 93.9913L20.0835 88.8524C16.9729 88.2864 14.1596 86.6467 12.1342 84.2191C10.1087 81.7915 8.99949 78.73 8.99997 75.5684V26.9998C8.99997 23.4194 10.4223 19.9856 12.954 17.4539C15.4858 14.9222 18.9195 13.4998 22.5 13.4998C23.3149 13.5018 24.128 13.5756 24.93 13.7203L42.12 16.8703C44.1882 17.2488 46.0587 18.3395 47.4068 19.953C48.7548 21.5666 49.4954 23.6013 49.5 25.7038V94.1758ZM99 75.5684C99.0005 78.73 97.8913 81.7915 95.8658 84.2191C93.8403 86.6467 91.027 88.2864 87.9165 88.8524L59.634 93.9913C59.256 94.0588 58.878 94.1218 58.5 94.1758V25.7038C58.4997 23.5961 59.2391 21.5551 60.5894 19.9367C61.9398 18.3183 63.8153 17.2251 65.889 16.8478L83.0835 13.6978C85.0307 13.3436 87.032 13.4218 88.9457 13.9269C90.8593 14.4321 92.6385 15.3519 94.1572 16.6211C95.6758 17.8903 96.8969 19.4779 97.7337 21.2714C98.5706 23.065 99.0029 25.0206 99 26.9998V75.5684Z" fill="#24245B"/>
</g>
<defs>
<clipPath id="clip0_582_73">
<rect width="108" height="108" fill="white"/>
</clipPath>
</defs>
</svg>
