<svg width="108" height="108" viewBox="0 0 108 108" fill="none" xmlns="http://www.w3.org/2000/svg">
<g id="Group">
<path id="Vector" d="M58.5 9V14.751L81 22.257L97.344 16.812L100.192 25.344L86.5485 29.8935L100.48 68.1975C95.5665 73.314 88.65 76.5 81 76.5C73.3455 76.5 66.4335 73.314 61.5195 68.1975L75.4425 29.8935L58.5 24.2415V85.5H76.5V94.5H31.5V85.5H49.5V24.2415L32.544 29.8935L46.476 68.1975C41.5665 73.314 34.65 76.5 27 76.5C19.3455 76.5 12.4335 73.314 7.51947 68.1975L21.4425 29.8935L7.80747 25.3485L10.656 16.8075L27 22.2525L49.5 14.751V9H58.5ZM81 40.9635L74.619 58.5H87.3765L81 40.9635ZM27 40.9635L20.619 58.5H33.3765L27 40.9635Z" fill="#24245B"/>
</g>
</svg>
